# Blender v2.90.1 OBJ File: 'tree_X12_+X1_Rock_Pack.blend'
# www.blender.org
mtllib tree 12.mtl
o _12_tree_Cylinder.005
v 10.613920 -0.028425 0.097537
v 10.566429 -0.028425 0.196153
v 10.459718 -0.028425 0.220510
v 10.374142 -0.028425 0.152265
v 10.374142 -0.028425 0.042809
v 10.459445 -0.028422 -0.027438
v 10.566429 -0.028425 -0.001080
v 10.461675 0.297032 -0.015727
v 10.542348 0.319281 0.170886
v 10.465772 0.298407 0.189002
v 10.404362 0.281668 0.138243
v 10.465772 0.298407 0.006071
v 10.546498 0.304055 0.170886
v 10.580578 0.313345 0.097537
v 10.469921 0.283181 0.189002
v 10.408512 0.266442 0.138243
v 10.408512 0.266442 0.056831
v 10.469922 0.283181 0.006071
v 10.546498 0.304055 0.024187
v 10.700539 -0.028923 -0.003274
v 10.583879 -0.028923 0.316457
v 10.534744 -0.028923 0.332922
v 10.248989 -0.028923 0.148041
v 10.243870 -0.028923 0.096474
v 10.673553 -0.028923 -0.047513
v 10.374142 0.055260 0.130363
v 10.387780 0.038185 0.163141
v 10.398500 0.279924 0.159246
v 10.384019 0.276056 0.126287
v 10.248989 -0.013973 0.148041
v 10.386089 0.043109 0.033280
v 10.374142 0.055260 0.059651
v 10.384536 0.276161 0.062439
v 10.396707 0.279455 0.037317
v 10.404362 0.281668 0.056831
v 10.246023 0.012158 0.121035
v 10.243870 -0.006681 0.096474
v 10.607695 0.056122 0.088910
v 10.555534 0.055260 0.198640
v 10.570393 0.046742 0.187925
v 10.451578 0.047019 0.214019
v 10.470917 0.055260 0.217953
v 10.571273 0.055260 0.008977
v 10.557750 0.046696 -0.003061
v 10.558681 0.173687 0.188764
v 10.607554 0.048859 0.108193
v 10.460758 0.176619 0.209777
v 10.558105 0.172485 0.005750
v 10.556978 0.323270 0.186632
v 10.596942 0.334161 0.097432
v 10.576428 0.328570 0.097537
v 10.462791 0.297596 0.210309
v 10.556142 0.323040 0.007662
v 10.542348 0.319281 0.024187
v 10.694707 0.010696 -0.012833
v 10.700539 -0.001223 -0.003274
v 10.583879 -0.001838 0.316457
v 10.573162 0.010696 0.320048
v 10.537551 0.006841 0.331994
v 10.673553 -0.001936 -0.047513
v 10.679410 0.010696 -0.037909
vt 0.717650 0.830688
vt 0.811604 0.761721
vt 0.818158 0.835037
vt 0.819884 0.639313
vt 0.733202 0.514367
vt 0.822543 0.492941
vt 0.059821 0.663523
vt 0.059447 0.630746
vt 0.071714 0.648360
vt 0.102291 0.740624
vt 0.083434 0.720732
vt 0.101281 0.721460
vt 0.569279 0.723094
vt 0.663525 0.793981
vt 0.552771 0.792370
vt 0.829900 0.753699
vt 0.195468 0.356155
vt 0.140327 0.253617
vt 0.153744 0.238924
vt 0.410022 0.367720
vt 0.542104 0.321254
vt 0.556540 0.329048
vt 0.228869 0.211641
vt 0.727732 0.322063
vt 0.668223 0.106530
vt 0.720092 0.107319
vt 0.663525 0.478118
vt 0.579162 0.493956
vt 0.534290 0.830140
vt 0.549257 0.921012
vt 0.483273 0.921853
vt 0.326836 0.563041
vt 0.353871 0.672793
vt 0.278396 0.679467
vt 0.070119 0.284996
vt 0.223993 0.647315
vt 0.176093 0.571565
vt 0.240424 0.642926
vt 0.431601 0.829701
vt 0.460377 0.916354
vt 0.385556 0.916354
vt 0.546270 0.402452
vt 0.410785 0.402452
vt 0.851534 0.272743
vt 0.879254 0.399317
vt 0.794776 0.396861
vt 0.255053 0.912758
vt 0.185890 0.925056
vt 0.238728 0.814327
vt 0.608291 0.825534
vt 0.608291 0.869297
vt 0.593301 0.869465
vt 0.223400 0.720622
vt 0.173511 0.774025
vt 0.168788 0.753620
vt 0.910720 0.481474
vt 0.555068 0.203185
vt 0.553825 0.085540
vt 0.632883 0.102518
vt 0.165235 0.502215
vt 0.254889 0.489728
vt 0.356621 0.850181
vt 0.333979 0.773364
vt 0.349482 0.772569
vt 0.170122 0.588900
vt 0.092231 0.570884
vt 0.240424 0.732447
vt 0.922206 0.841996
vt 0.873453 0.841996
vt 0.873993 0.815786
vt 0.102351 0.589365
vt 0.952341 0.269332
vt 0.931865 0.347523
vt 0.936659 0.268479
vt 0.901222 0.098688
vt 0.899189 0.230773
vt 0.777972 0.171990
vt 0.621867 0.828970
vt 0.637598 0.908148
vt 0.621867 0.908166
vt 0.914812 0.338651
vt 0.903222 0.268226
vt 0.918941 0.268181
vt 0.356621 0.712267
vt 0.341118 0.713063
vt 0.947547 0.348377
vt 0.936659 0.398582
vt 0.903222 0.410893
vt 0.918941 0.410848
vt 0.312180 0.704808
vt 0.285053 0.751140
vt 0.272498 0.740691
vt 0.635187 0.337433
vt 0.341199 0.112974
vt 0.209127 0.138325
vt 0.330219 0.088254
vt 0.908306 0.752272
vt 0.116193 0.174898
vt 0.093853 0.815281
vt 0.138702 0.943264
vt 0.056788 0.947247
vt 0.416791 0.767435
vt 0.416423 0.789048
vt 0.341199 0.467329
vt 0.669954 0.321085
vt 0.270386 0.821148
vt 0.543855 0.711474
vt 0.143085 0.815597
vt 0.158199 0.947247
vt 0.243605 0.213913
vt 0.837966 0.267614
vt 0.775165 0.401683
vt 0.549257 0.830695
vt 0.353871 0.562627
vt 0.116199 0.394795
vt 0.458716 0.830404
vt 0.879254 0.276904
vt 0.567094 0.846678
vt 0.585989 0.825784
vt 0.341118 0.850977
vt 0.884829 0.803517
vt 0.912464 0.803517
vt 0.922760 0.815093
vt 0.930255 0.171990
vt 0.831416 0.230773
vt 0.779100 0.098688
vt 0.833951 0.066066
vt 0.637598 0.828952
vt 0.899092 0.338696
vt 0.952341 0.399435
vt 0.276360 0.706810
vt 0.312180 0.751645
vt 0.128371 0.817974
vt 0.291932 0.925056
vt 0.651800 0.402176
vt 0.554069 0.497305
vt 0.403789 0.749829
vn 0.2392 0.0020 -0.9710
vn 0.2363 0.0154 -0.9716
vn -0.2687 0.9632 0.0050
vn -0.2687 0.9632 -0.0039
vn -0.6357 0.0033 -0.7719
vn 0.6456 0.0516 -0.7619
vn 0.6030 0.0504 0.7961
vn -0.4195 0.7212 0.5512
vn 0.9026 0.0805 0.4228
vn -0.9989 0.0471 -0.0080
vn -0.6386 0.0418 -0.7684
vn -0.0507 -0.1508 0.9873
vn -0.3825 -0.0685 -0.9214
vn 0.2219 0.0752 0.9722
vn -0.2630 0.9648 -0.0000
vn 0.9894 -0.0663 -0.1289
vn -0.8290 0.0795 0.5536
vn 0.3117 0.9379 -0.1522
vn -0.3189 0.9478 0.0000
vn 0.2577 0.0330 -0.9657
vn -0.9951 0.0000 0.0988
vn -0.2603 0.9654 -0.0120
vn 0.9094 0.0171 -0.4155
vn -0.2689 0.9631 -0.0102
vn -0.6231 0.0070 0.7821
vn 0.2395 0.0166 0.9708
vn -0.8693 -0.2369 0.4339
vn -0.2630 0.9648 -0.0001
vn 0.8537 0.0000 -0.5208
vn -0.2648 0.9643 -0.0003
vn -0.2678 0.9635 -0.0006
vn 0.6016 0.1639 0.7818
vn 0.6016 0.1640 -0.7818
vn -0.8693 -0.2368 -0.4339
vn -0.2147 -0.0585 0.9749
vn 0.9648 0.2630 0.0000
vn -0.2147 -0.0585 -0.9749
vn 0.3177 0.0000 0.9482
vn -0.5897 0.0391 0.8066
vn 0.7585 0.0000 0.6517
vn 0.9059 0.0904 -0.4138
vn 0.9064 -0.0015 0.4224
vn 0.0798 0.9335 0.3497
vn -0.3809 0.0000 -0.9246
vn 0.9117 0.0162 0.4105
vn -0.9165 0.0483 0.3970
vn -0.2769 0.6752 0.6837
vn -0.6235 0.0000 0.7818
vn -0.9014 0.0478 -0.4304
vn -0.4812 0.6927 -0.5372
vn 0.6021 0.7657 0.2262
vn -0.2185 0.0474 0.9747
vn 0.9990 0.0380 0.0216
vn 0.6820 0.6828 0.2621
vn 0.0789 0.7683 -0.6352
vn -0.9990 0.0447 0.0000
vn -0.6183 0.0325 -0.7853
vn -0.0337 0.0000 0.9994
vn -0.3977 0.0000 -0.9175
vn 0.2115 0.0833 0.9738
vn 0.9896 0.0000 -0.1436
vn -0.8137 -0.0379 0.5801
vn 0.3045 0.9342 -0.1857
vn 0.1908 0.0681 -0.9793
vn -0.9952 -0.0127 0.0970
vn -0.2650 0.9642 -0.0018
vn 0.8862 0.0484 -0.4607
vn -0.2666 0.9638 -0.0047
vn 0.2096 -0.0078 0.9778
vn 0.8537 0.0002 -0.5208
vn -0.2672 0.9636 0.0054
vn -0.2659 0.9640 0.0000
vn 0.6015 0.1640 0.7818
vn 0.6015 0.1640 -0.7818
vn -0.8692 -0.2370 -0.4339
vn 0.3181 -0.0004 0.9481
vn -0.6279 0.0698 0.7752
vn 0.7617 -0.0265 0.6473
vn 0.9009 0.0144 0.4338
vn 0.0133 0.9393 0.3428
vn -0.3885 -0.0576 -0.9197
vn 0.8866 0.0503 0.4598
vn -0.9133 0.0470 0.4045
vn -0.3466 0.7651 0.5427
vn -0.4829 0.7148 -0.5059
vn 0.7712 0.6257 0.1177
vn 0.7127 0.6167 0.3342
vn -0.0783 0.6261 -0.7758
usemtl _12_tree
s off
f 6/1/1 44/2/1 7/3/1
f 48/4/2 8/5/2 53/6/2
f 29/7/3 28/8/3 11/9/3
f 34/10/4 33/11/4 35/12/4
f 31/13/5 6/14/5 5/15/5
f 48/4/6 43/16/6 44/2/6
f 45/17/7 39/18/7 40/19/7
f 59/20/8 42/21/8 41/22/8
f 40/19/9 46/23/9 45/17/9
f 32/24/10 29/25/10 33/26/10
f 8/27/11 31/13/11 34/28/11
f 30/29/12 4/30/12 27/31/12
f 60/32/13 7/33/13 44/34/13
f 45/17/14 42/35/14 39/18/14
f 51/36/15 49/37/15 50/38/15
f 57/39/16 2/40/16 40/41/16
f 59/20/17 3/42/17 22/43/17
f 55/44/18 43/45/18 38/46/18
f 26/47/19 32/48/19 36/49/19
f 48/4/20 6/1/20 8/5/20
f 24/50/21 23/51/21 30/52/21
f 54/53/22 8/54/22 12/55/22
f 50/56/23 48/4/23 53/6/23
f 34/10/24 12/55/24 8/54/24
f 47/57/25 52/58/25 28/59/25
f 52/60/26 45/17/26 49/61/26
f 14/62/27 54/63/27 19/64/27
f 9/65/28 52/66/28 49/37/28
f 51/36/15 53/67/15 54/53/15
f 20/68/29 25/69/29 60/70/29
f 10/71/30 28/8/30 52/66/30
f 29/7/31 35/12/31 33/11/31
f 12/72/32 17/73/32 18/74/32
f 17/75/15 15/76/15 14/77/15
f 16/78/33 10/79/33 15/80/33
f 13/81/34 51/82/34 14/83/34
f 18/84/35 54/63/35 12/85/35
f 35/86/36 16/87/36 17/73/36
f 10/88/37 13/81/37 15/89/37
f 22/90/38 57/91/38 58/92/38
f 27/93/39 47/57/39 28/59/39
f 56/94/40 1/95/40 20/96/40
f 43/16/41 48/4/41 38/97/41
f 2/98/42 46/23/42 40/19/42
f 59/99/43 39/100/43 42/101/43
f 37/102/44 5/15/44 24/103/44
f 45/17/45 50/104/45 49/61/45
f 26/105/46 28/59/46 29/25/46
f 30/106/47 26/47/47 36/49/47
f 27/93/48 3/42/48 41/22/48
f 32/107/49 34/28/49 31/13/49
f 37/102/50 32/107/50 31/13/50
f 39/100/51 57/108/51 40/109/51
f 47/57/52 41/22/52 42/21/52
f 46/23/53 38/110/53 50/104/53
f 56/111/54 38/46/54 46/112/54
f 43/16/55 60/70/55 44/2/55
f 32/24/56 26/105/56 29/25/56
f 8/27/57 6/14/57 31/13/57
f 30/29/58 23/113/58 4/30/58
f 60/32/59 25/114/59 7/33/59
f 45/17/60 47/115/60 42/35/60
f 51/36/15 9/65/15 49/37/15
f 57/39/61 21/116/61 2/40/61
f 59/20/62 41/22/62 3/42/62
f 55/44/63 61/117/63 43/45/63
f 48/4/64 44/2/64 6/1/64
f 36/118/65 37/119/65 30/52/65
f 37/119/21 24/50/21 30/52/21
f 54/53/66 53/67/66 8/54/66
f 50/56/67 38/97/67 48/4/67
f 34/10/68 35/12/68 12/55/68
f 52/60/69 47/115/69 45/17/69
f 14/62/27 51/120/27 54/63/27
f 9/65/28 10/71/28 52/66/28
f 51/36/15 50/38/15 53/67/15
f 61/121/70 55/122/70 60/70/70
f 55/122/29 56/123/29 60/70/29
f 56/123/29 20/68/29 60/70/29
f 10/71/71 11/9/71 28/8/71
f 29/7/72 11/9/72 35/12/72
f 12/72/73 35/86/73 17/73/73
f 17/75/15 16/124/15 15/76/15
f 15/76/15 13/125/15 14/77/15
f 14/77/15 19/126/15 18/127/15
f 18/127/15 17/75/15 14/77/15
f 16/78/74 11/128/74 10/79/74
f 13/81/75 9/129/75 51/82/75
f 18/84/35 19/64/35 54/63/35
f 35/86/36 11/130/36 16/87/36
f 10/88/37 9/129/37 13/81/37
f 58/92/76 59/131/76 22/90/76
f 22/90/38 21/132/38 57/91/38
f 27/93/77 41/22/77 47/57/77
f 56/94/78 46/23/78 1/95/78
f 2/98/79 1/95/79 46/23/79
f 59/99/80 58/133/80 39/100/80
f 37/102/81 31/13/81 5/15/81
f 45/17/82 46/23/82 50/104/82
f 26/105/83 27/93/83 28/59/83
f 30/106/84 27/134/84 26/47/84
f 27/93/48 4/135/48 3/42/48
f 32/107/49 33/136/49 34/28/49
f 37/102/85 36/137/85 32/107/85
f 39/100/86 58/133/86 57/108/86
f 56/111/87 55/44/87 38/46/87
f 43/16/88 61/121/88 60/70/88
